<?xml version="1.0" encoding="utf-8"?>
<!-- Generator: Adobe Illustrator 25.2.3, SVG Export Plug-In . SVG Version: 6.00 Build 0)  -->
<svg version="1.1" id="Слой_1" xmlns="http://www.w3.org/2000/svg" xmlns:xlink="http://www.w3.org/1999/xlink" x="0px" y="0px"
	 viewBox="0 0 897.2 622.5" style="enable-background:new 0 0 897.2 622.5;" xml:space="preserve">
<style type="text/css">
	.st0{fill:#E5DED7;}
	.st1{fill:#EFCD5B;}
	.st2{fill:#F1884A;}
	.st3{fill:#D75423;}
	.st4{fill:none;}
</style>
<g>
	<g id="Слой_1_1_">
		
			<image style="overflow:visible;opacity:0.75;enable-background:new    ;" width="600" height="825" xlink:href="4ED53A.png"  transform="matrix(0.24 0 0 0.24 396.73 380.28)">
		</image>
		<path class="st0" d="M415.5,530.2c12.4,17.4,35.1,29.4,58.3,25.2c3.2-0.6,20.4-3.9,32.4-19.2c15-19.1,16.5-48.9,4.1-65.3
			c-7.1-9.4-16.5-11.4-18.2-21.9s5.9-20.1,4.9-20.7c-1.4-0.8-11.5,22.2-19.1,20.9c-7-1.2-12.3-23-7.6-41.8c3-12,8.7-17.2,7.1-18.7
			c-3.2-3-29.9,12.2-41.3,38.8c-2.4,5.6-11.3,26.4-2.9,36.4c2.5,3,6.8,5.3,6.9,9.6c0.1,3.8-3.1,8.3-6.1,8.4
			c-5.6,0.1-12.9-14.9-10.7-27.7c0.9-5.6,3.4-9,2.8-9.4c-1-0.6-11.7,11.3-17,25.8C407.4,475.2,397.3,504.5,415.5,530.2z"/>
		
			<image style="overflow:visible;opacity:0.75;enable-background:new    ;" width="981" height="1386" xlink:href="4ED53E.png"  transform="matrix(0.24 0 0 0.24 340.09 250.92)">
		</image>
		<path class="st1" d="M538.3,407.6c-12.8-17-29.8-20.5-32.8-39.4s10.7-36.2,8.9-37.2c-2.6-1.4-20.7,40-34.5,37.7
			c-12.7-2.1-22.2-41.4-13.7-75.3c5.4-21.7,15.6-30.9,12.7-33.7c-5.8-5.4-53.8,21.9-74.4,69.8c-4.3,10.1-20.4,47.5-5.1,65.6
			c4.6,5.4,12.3,9.5,12.4,17.4c0.1,6.9-5.5,15-11,15c-10.1,0.1-23.1-26.8-19.3-49.8c1.7-10.1,6.1-16.2,5-16.9
			c-1.9-1.1-21,20.4-30.6,46.5c-3,8.1-21.3,61,11.6,107.2c22.3,31.3,63.2,52.9,105,45.3c5.8-1,36.7-7,58.4-34.7
			C558,490.9,560.6,437.2,538.3,407.6z M506.3,536.2c-12.1,15.3-29.2,18.7-32.5,19.2c-23.2,4.2-46-7.7-58.3-25.2
			c-18.2-25.7-8.1-55.1-6.4-59.5c5.3-14.5,16-26.4,17-25.8c0.6,0.3-1.9,3.7-2.8,9.4c-2.2,12.8,5.1,27.8,10.7,27.7
			c3,0,6.2-4.5,6.1-8.4c-0.1-4.4-4.4-6.6-6.9-9.6c-8.5-10,0.5-30.9,2.9-36.4c11.4-26.6,38.1-41.7,41.3-38.8c1.6,1.5-4,6.7-7.1,18.7
			c-4.7,18.8,0.6,40.6,7.6,41.8c7.7,1.3,17.7-21.7,19.1-20.9c1,0.6-6.6,10.2-4.9,20.7s11.1,12.4,18.2,21.9
			C522.8,487.2,521.3,517.1,506.3,536.2L506.3,536.2z"/>
		
			<image style="overflow:visible;opacity:0.75;enable-background:new    ;" width="1362" height="2010" xlink:href="4ED539.png"  transform="matrix(0.24 0 0 0.24 288.25 106.44)">
		</image>
		<path class="st2" d="M571.1,342.7c-18.7-24.8-43.4-29.9-47.8-57.3c-4.2-26.5,18.8-49.3,13-54.2s-24.9,22-51.3,20.7
			c-21-1-39.6-19.6-48-37c-21.4-44.5,16.7-96.4,10-100c-7.4-3.9-68.5,51.3-62,112c3.3,30.9,22.5,47.7,16,84
			c-2.8,14.8-9.3,28.5-19,40c-6.6,7.7-15.5,18.1-26,17c-14.2-1.5-22.1-23.1-25-31c-8.8-24-4-43.4-7-44c-3.3-0.6-12.8,21.7-18.5,49.5
			c-8.6,42.2-21.1,102.6,16.9,156.2c32.4,45.7,92,77.1,153,66c8.4-1.5,53.4-10.3,85.1-50.5C599.8,464,603.7,385.7,571.1,342.7z
			 M530.9,525.3c-21.8,27.6-52.6,33.6-58.4,34.7c-41.9,7.6-82.8-13.9-105-45.3c-32.9-46.3-14.5-99.2-11.6-107.2
			c9.6-26.1,28.7-47.6,30.6-46.5c1,0.6-3.3,6.7-5,16.9c-3.8,23.1,9.2,50,19.3,49.8c5.5-0.1,11.1-8.1,11-15
			c-0.2-7.9-7.9-11.9-12.4-17.4c-15.3-18.1,0.8-55.6,5.1-65.6c20.6-47.9,68.6-75.2,74.4-69.8c2.9,2.8-7.3,12-12.7,33.7
			c-8.5,33.9,1,73.1,13.7,75.3c13.8,2.3,31.9-39.1,34.5-37.7c1.8,1-11.9,18.3-8.9,37.2s20,22.4,32.8,39.4
			C560.6,437.2,558,490.9,530.9,525.3z"/>
		
			<image style="overflow:visible;opacity:0.75;enable-background:new    ;" width="1624" height="2333" xlink:href="4ED53B.png"  transform="matrix(0.24 0 0 0.24 266.6 34.06)">
		</image>
		<path class="st3" d="M607.9,302.4c-22.5-29.8-52.2-36-57.5-68.9s18.7-63.4,15.6-65.2c-4.5-2.5-36.2,70-60.4,66
			c-22.3-3.8-38.9-72.6-24-131.9c9.5-37.9,27.4-54.2,22.3-59c-10.1-9.5-94.3,38.4-130.3,122.2c-7.6,17.6-35.8,83.3-9,115
			c8,9.5,21.5,16.6,21.8,30.4c0.3,12.1-9.7,26.2-19.3,26.4c-17.7,0.3-40.6-46.9-33.9-87.3c2.9-17.7,10.6-28.4,8.8-29.5
			c-3.3-1.9-36.8,35.8-53.6,81.5c-5.2,14.2-37.3,106.8,20.3,187.9c39,55,110.6,92.7,184,79.4c10.1-1.8,64.2-12.3,102.4-60.7
			C642.4,448.4,647,354.2,607.9,302.4z M560.4,514c-31.7,40.2-76.7,49-85.1,50.5c-61,11.1-120.5-20.3-152.9-66
			c-38-53.6-25.4-114-16.9-156.2c5.6-27.7,15.2-50.1,18.5-49.5c3,0.6-1.8,20,7,44c2.9,7.9,10.8,29.5,25,31c10.5,1.1,19.4-9.3,26-17
			c9.7-11.5,16.2-25.2,19-40c6.5-36.3-12.7-53.1-16-84c-6.5-60.7,54.6-115.9,62-112c6.7,3.6-31.4,55.5-10,100c8.4,17.4,27,36,48,37
			c26.4,1.3,45.3-25.7,51.3-20.7s-17.2,27.6-13,54.2c4.4,27.4,29.1,32.6,47.8,57.3C603.7,385.7,599.8,464,560.4,514z"/>
		<rect x="174.5" y="0" class="st4" width="545" height="622.5"/>
	</g>
</g>
</svg>
