<svg width="316" height="476" viewBox="0 0 316 476" fill="none" xmlns="http://www.w3.org/2000/svg">
<path d="M131.269 405.422C140.75 418.727 158.106 427.903 175.845 424.691C178.292 424.233 191.443 421.709 200.618 410.01C212.087 395.405 213.234 372.618 203.753 360.078C198.324 352.89 191.137 351.361 189.837 343.332C188.537 335.303 194.348 327.962 193.584 327.503C192.513 326.892 184.791 344.479 178.98 343.485C173.628 342.567 169.575 325.898 173.169 311.522C175.463 302.346 179.821 298.37 178.598 297.223C176.151 294.929 155.736 306.552 147.02 326.892C145.185 331.174 138.38 347.079 144.802 354.725C146.714 357.019 150.002 358.778 150.078 362.066C150.154 364.972 147.708 368.413 145.414 368.489C141.132 368.565 135.551 357.096 137.233 347.308C137.921 343.026 139.832 340.426 139.374 340.12C138.609 339.661 130.428 348.761 126.375 359.848C125.076 363.366 117.353 385.77 131.269 405.422Z" fill="#E5DED7"/>
<path d="M225.162 311.675C215.375 298.676 202.377 295.999 200.083 281.547C197.789 267.095 208.264 253.867 206.888 253.102C204.9 252.032 191.061 283.688 180.509 281.93C170.799 280.324 163.535 250.273 170.034 224.351C174.163 207.758 181.962 200.723 179.745 198.582C175.31 194.453 138.609 215.328 122.858 251.955C119.57 259.678 107.26 288.276 118.959 302.117C122.476 306.246 128.363 309.381 128.44 315.422C128.516 320.698 124.235 326.892 120.029 326.892C112.307 326.968 102.367 306.399 105.272 288.812C106.572 281.089 109.937 276.424 109.095 275.889C107.643 275.048 93.0388 291.488 85.6987 311.446C83.4049 317.639 69.4127 358.09 94.568 393.417C111.619 417.351 142.891 433.867 174.851 428.056C179.286 427.291 202.912 422.703 219.504 401.522C240.225 375.371 242.212 334.309 225.162 311.675ZM200.695 410.01C191.443 421.709 178.368 424.309 175.845 424.691C158.106 427.903 140.673 418.804 131.269 405.422C117.353 385.77 125.076 363.289 126.375 359.925C130.428 348.837 138.609 339.738 139.374 340.197C139.832 340.426 137.921 343.026 137.233 347.384C135.551 357.172 141.132 368.642 145.414 368.566C147.708 368.566 150.155 365.125 150.078 362.142C150.002 358.778 146.714 357.096 144.802 354.802C138.303 347.155 145.185 331.174 147.02 326.968C155.736 306.628 176.151 295.082 178.598 297.299C179.821 298.446 175.539 302.423 173.169 311.598C169.575 325.974 173.628 342.644 178.98 343.561C184.867 344.555 192.513 326.968 193.584 327.58C194.348 328.039 188.537 335.379 189.837 343.408C191.137 351.437 198.324 352.89 203.753 360.154C213.311 372.542 212.164 395.405 200.695 410.01Z" fill="#EFCD5B"/>
<path d="M250.241 262.049C235.943 243.085 217.057 239.185 213.693 218.234C210.481 197.97 228.067 180.536 223.633 176.789C219.198 173.042 204.594 193.612 184.409 192.618C168.352 191.853 154.13 177.63 147.708 164.325C131.345 130.298 160.477 90.6121 155.354 87.8593C149.696 84.8771 102.979 127.086 107.948 173.501C110.472 197.129 125.152 209.975 120.182 237.732C118.041 249.049 113.071 259.525 105.655 268.319C100.608 274.207 93.8033 282.159 85.775 281.318C74.9177 280.171 68.8774 263.654 66.66 257.614C59.9315 239.262 63.6016 224.427 61.3078 223.969C58.7846 223.51 51.5209 240.562 47.1627 261.819C40.5871 294.088 31.0296 340.273 60.0844 381.259C84.8575 416.204 130.428 440.214 177.068 431.726C183.491 430.579 217.898 423.85 242.136 393.111C272.185 354.802 275.167 294.929 250.241 262.049ZM219.504 401.675C202.835 422.78 179.286 427.368 174.851 428.209C142.814 434.02 111.542 417.58 94.5679 393.57C69.4126 358.166 83.4812 317.716 85.6986 311.598C93.0387 291.641 107.643 275.201 109.095 276.042C109.86 276.501 106.572 281.165 105.272 288.965C102.367 306.628 112.307 327.197 120.029 327.045C124.234 326.968 128.516 320.851 128.44 315.575C128.287 309.534 122.399 306.475 118.959 302.27C107.26 288.429 119.57 259.755 122.858 252.108C138.609 215.481 175.31 194.606 179.744 198.735C181.962 200.876 174.163 207.911 170.034 224.504C163.535 250.426 170.799 280.4 180.509 282.083C191.061 283.841 204.9 252.184 206.888 253.255C208.264 254.02 197.789 267.248 200.083 281.7C202.377 296.152 215.375 298.829 225.162 311.828C242.212 334.309 240.224 375.371 219.504 401.675Z" fill="#F1884A"/>
<path d="M278.378 231.233C261.175 208.446 238.466 203.705 234.413 178.548C230.361 153.39 248.712 130.068 246.341 128.692C242.901 126.78 218.663 182.218 200.159 179.159C183.109 176.254 170.416 123.645 181.809 78.301C189.073 49.3204 202.759 36.8565 198.86 33.1861C191.137 25.9219 126.758 62.549 99.232 126.627C93.4211 140.085 71.8593 190.324 92.3506 214.563C98.4674 221.827 108.79 227.256 109.019 237.809C109.248 247.061 101.602 257.843 94.2621 257.996C80.7287 258.225 63.2193 222.133 68.3422 191.241C70.5595 177.707 76.4469 169.525 75.0706 168.684C72.5475 167.231 46.9333 196.058 34.088 231.003C30.1121 241.861 5.56842 312.669 49.6094 374.683C79.4289 416.739 134.174 445.567 190.296 435.397C198.018 434.02 239.383 425.991 268.591 388.982C304.757 342.873 308.274 270.842 278.378 231.233ZM242.06 393.034C217.822 423.774 183.415 430.503 176.992 431.65C130.351 440.137 84.8575 416.127 60.0845 381.182C31.0296 340.197 40.6636 294.011 47.1627 261.743C51.4445 240.562 58.7846 223.433 61.3078 223.892C63.6016 224.351 59.9315 239.185 66.66 257.537C68.8774 263.578 74.9177 280.094 85.775 281.241C93.8034 282.083 100.608 274.13 105.655 268.242C113.071 259.449 118.041 248.973 120.182 237.656C125.152 209.899 110.472 197.052 107.948 173.425C102.979 127.01 149.696 84.8006 155.354 87.7828C160.477 90.5355 131.345 130.221 147.708 164.249C154.13 177.554 168.352 191.776 184.409 192.541C204.594 193.535 219.045 172.889 223.633 176.713C228.22 180.536 210.481 197.817 213.693 218.157C217.057 239.109 235.943 243.085 250.241 261.972C275.167 294.929 272.185 354.802 242.06 393.034Z" fill="#D75423"/>
</svg>
