<?xml version="1.0" encoding="utf-8"?>
<!-- Generator: Adobe Illustrator 25.2.3, SVG Export Plug-In . SVG Version: 6.00 Build 0)  -->
<svg version="1.1" id="Слой_1" xmlns="http://www.w3.org/2000/svg" xmlns:xlink="http://www.w3.org/1999/xlink" x="0px" y="0px"
	 viewBox="0 0 471 746.9" style="enable-background:new 0 0 471 746.9;" xml:space="preserve">
<style type="text/css">
	.st0{fill:url(#SVGID_1_);}
	.st1{fill:url(#SVGID_2_);}
	.st2{fill:url(#SVGID_3_);}
	.st3{fill:url(#SVGID_4_);}
	.st4{fill:url(#SVGID_5_);}
</style>
<linearGradient id="SVGID_1_" gradientUnits="userSpaceOnUse" x1="78.7385" y1="165.6948" x2="392.2185" y2="165.6948" gradientTransform="matrix(1 0 0 -1 0 747.8898)">
	<stop  offset="7.000000e-02" style="stop-color:#F18845"/>
	<stop  offset="0.28" style="stop-color:#D3501C"/>
	<stop  offset="0.6" style="stop-color:#E3312D"/>
	<stop  offset="0.76" style="stop-color:#C31825"/>
	<stop  offset="0.79" style="stop-color:#B71822"/>
	<stop  offset="0.86" style="stop-color:#A4191E"/>
	<stop  offset="0.93" style="stop-color:#99191B"/>
	<stop  offset="1" style="stop-color:#95191A"/>
</linearGradient>
<path class="st0" d="M364,426.9l-59.1,45.5L245.8,518l-58.9,45.3l-59.1,45.5l-59.1,45.5l-7.2,5.5c-5.1,2.7-9.5,6.7-12.6,11.6
	c-3.9,4.3-6.7,9.6-8,15.3c-1.9,5.8-2.2,12-0.8,17.9c0.3,6,2.1,11.7,5.3,16.7l7,9.1c5.5,5.5,12.3,9.5,19.9,11.6l12,1.6
	c8,0,15.8-2.1,22.7-6.1l59.1-45.5l59.1-45.5l58.9-45.3l59.1-45.5l59.1-45.5l7.2-5.5c5.1-2.7,9.4-6.7,12.6-11.6
	c7.8-9.2,11-21.4,8.9-33.2c-0.3-6-2.1-11.8-5.4-16.8l-7-9.1c-5.5-5.5-12.3-9.5-19.9-11.6l-12-1.6C378.7,420.7,370.9,422.8,364,426.9
	z"/>
<linearGradient id="SVGID_2_" gradientUnits="userSpaceOnUse" x1="78.7385" y1="259.155" x2="392.2185" y2="259.155" gradientTransform="matrix(1 0 0 -1 0 747.8898)">
	<stop  offset="0" style="stop-color:#FFEF26"/>
	<stop  offset="2.000000e-02" style="stop-color:#FFEA21"/>
	<stop  offset="0.1" style="stop-color:#FED70F"/>
	<stop  offset="0.19" style="stop-color:#FDCC04"/>
	<stop  offset="0.28" style="stop-color:#FDC800"/>
	<stop  offset="0.67" style="stop-color:#F18F34"/>
	<stop  offset="0.89" style="stop-color:#E95F32"/>
	<stop  offset="1" style="stop-color:#E3312D"/>
</linearGradient>
<path class="st1" d="M364,333.4l-59.1,45.5l-59.1,45.5l-58.8,45.3l-59.1,45.5l-59.1,45.5l-7.2,5.5c-5.1,2.7-9.5,6.7-12.6,11.6
	c-3.9,4.3-6.7,9.6-8,15.3c-1.9,5.8-2.2,12-0.8,17.9c0.2,6,2.1,11.7,5.3,16.8l7,9.1c5.5,5.5,12.3,9.5,19.9,11.6l12,1.6
	c8,0,15.9-2.1,22.8-6.2l59.1-45.5l59.1-45.6l58.9-45.3l59.1-45.5l59.1-45.5l7.2-5.5c5.1-2.7,9.5-6.7,12.6-11.6
	c7.8-9.2,11-21.4,8.9-33.2c-0.3-6-2.1-11.7-5.3-16.7l-7-9.1c-5.5-5.5-12.3-9.5-19.9-11.6l-12-1.6C378.8,327.2,370.9,329.3,364,333.4
	z"/>
<linearGradient id="SVGID_3_" gradientUnits="userSpaceOnUse" x1="78.7385" y1="363.155" x2="392.2185" y2="363.155" gradientTransform="matrix(1 0 0 -1 0 747.8898)">
	<stop  offset="0" style="stop-color:#5EB361"/>
	<stop  offset="6.000000e-02" style="stop-color:#49B16C"/>
	<stop  offset="0.14" style="stop-color:#36AF76"/>
	<stop  offset="0.22" style="stop-color:#2BAE7C"/>
	<stop  offset="0.31" style="stop-color:#27AE7E"/>
	<stop  offset="0.58" style="stop-color:#108F59"/>
	<stop  offset="0.79" style="stop-color:#11582F"/>
	<stop  offset="1" style="stop-color:#182B1E"/>
</linearGradient>
<path class="st2" d="M364,229.4l-59.1,45.5l-59.1,45.5l-58.8,45.3l-59.1,45.5l-59.1,45.5l-7.2,5.5c-5.1,2.7-9.5,6.7-12.6,11.6
	c-3.9,4.3-6.7,9.6-8,15.3c-1.9,5.8-2.2,12-0.8,17.9c0.2,6,2.1,11.7,5.3,16.7l7,9.1c5.5,5.5,12.3,9.5,19.9,11.6l12,1.6
	c8,0,15.9-2.1,22.8-6.2l59.1-45.5l59.1-45.6l58.9-45.3l59.1-45.5l59.1-45.5l7.2-5.5c5.1-2.7,9.5-6.7,12.6-11.6
	c7.8-9.2,11-21.4,8.9-33.2c-0.3-6-2.1-11.7-5.3-16.7l-7-9.1c-5.5-5.5-12.3-9.5-19.9-11.6l-12-1.6C378.8,223.2,370.9,225.3,364,229.4
	z"/>
<linearGradient id="SVGID_4_" gradientUnits="userSpaceOnUse" x1="78.7385" y1="474.4299" x2="392.2185" y2="474.4299" gradientTransform="matrix(1 0 0 -1 0 747.8898)">
	<stop  offset="0" style="stop-color:#00AB9F"/>
	<stop  offset="4.000000e-02" style="stop-color:#14AFA1"/>
	<stop  offset="0.1" style="stop-color:#2FB3A4"/>
	<stop  offset="0.17" style="stop-color:#42B6A6"/>
	<stop  offset="0.24" style="stop-color:#4DB8A8"/>
	<stop  offset="0.31" style="stop-color:#51B9A8"/>
	<stop  offset="0.58" style="stop-color:#4B9ED8"/>
	<stop  offset="0.79" style="stop-color:#4476BA"/>
	<stop  offset="1" style="stop-color:#2B4A9A"/>
</linearGradient>
<path class="st3" d="M364,118.1l-59.1,45.5l-59.1,45.5l-58.8,45.4L127.8,300l-59.1,45.5l-7.2,5.5c-5.1,2.7-9.5,6.7-12.6,11.6
	c-3.9,4.3-6.7,9.6-8,15.3c-1.9,5.8-2.2,12-0.9,18c0.3,6,2.1,11.7,5.3,16.7l7,9.1c5.5,5.5,12.3,9.5,19.9,11.6l12,1.6
	c8,0,15.9-2.1,22.8-6.2l59.1-45.5l59.1-45.5l58.9-45.4l59.1-45.5l59.1-45.5l7.2-5.5c5.1-2.7,9.5-6.7,12.6-11.6c4-4.3,6.7-9.6,8-15.3
	c1.9-5.8,2.2-12,0.9-17.9c-0.3-6-2.1-11.7-5.3-16.7l-7-9.1c-5.5-5.5-12.4-9.5-19.9-11.6l-12-1.6C378.8,111.9,370.9,114,364,118.1z"
	/>
<linearGradient id="SVGID_5_" gradientUnits="userSpaceOnUse" x1="145.5134" y1="427.332" x2="325.4534" y2="739.012" gradientTransform="matrix(1 0 0 -1 0 747.8898)">
	<stop  offset="0" style="stop-color:#DD2987"/>
	<stop  offset="2.000000e-02" style="stop-color:#D52C88"/>
	<stop  offset="9.000000e-02" style="stop-color:#BA368D"/>
	<stop  offset="0.16" style="stop-color:#A73D90"/>
	<stop  offset="0.23" style="stop-color:#9C4191"/>
	<stop  offset="0.31" style="stop-color:#984292"/>
	<stop  offset="0.58" style="stop-color:#543E91"/>
	<stop  offset="0.79" style="stop-color:#42277B"/>
	<stop  offset="1" style="stop-color:#26163A"/>
</linearGradient>
<path class="st4" d="M364,9.4l-59.1,45.5l-59.1,45.5l-58.8,45.3l-59.1,45.5l-59.1,45.5l-7.2,5.5c-5.1,2.7-9.5,6.7-12.6,11.6
	c-3.9,4.3-6.7,9.6-8,15.3c-1.9,5.8-2.2,12-0.8,17.9c0.2,6,2.1,11.7,5.3,16.8l7,9.1c5.5,5.5,12.3,9.5,19.9,11.6l12,1.6
	c8,0,15.9-2.1,22.8-6.2l59.1-45.5l59.1-45.6l58.9-45.3l59.1-45.5l59.1-45.5l7.2-5.5c5.1-2.7,9.5-6.7,12.6-11.6c4-4.3,6.7-9.6,8-15.3
	c1.9-5.8,2.2-12,0.8-17.9c-0.3-6-2.1-11.7-5.3-16.7l-7-9.1c-5.5-5.5-12.3-9.5-19.9-11.6l-12-1.6C378.7,3.2,370.9,5.3,364,9.4z"/>
</svg>
