<?xml version="1.0" encoding="utf-8"?>
<!-- Generator: Adobe Illustrator 25.2.3, SVG Export Plug-In . SVG Version: 6.00 Build 0)  -->
<svg version="1.1" id="Layer_1" xmlns="http://www.w3.org/2000/svg" xmlns:xlink="http://www.w3.org/1999/xlink" x="0px" y="0px"
	 viewBox="0 0 64 64" style="enable-background:new 0 0 64 64;" xml:space="preserve">
<style type="text/css">
	.st0{fill:#FFFFFF;}
	.st1{fill:#E0E0E0;}
	.st2{fill:#C6C6C6;}
</style>
<g>
	<path class="st0" d="M62.1,54.1c-0.7,1.9-3.6,5.5-5.7,7.1c-1.8,1.4-3.1,1.9-4.8,2c-1.4,0.1-2-0.1-3.8-0.8
		c-14.2-5.8-25.5-14.5-34.4-26.5C8.6,29.7,5.1,23.2,2.6,16.5c-1.4-3.9-1.5-5.6-0.3-7.6C2.8,8,5,5.9,6.5,4.8c2.6-1.9,3.8-2.6,4.8-2.8
		c0.7-0.1,1.8,0,2.5,0.2c0.4,0.1,0.9,0.4,1.2,0.6c1.9,1.3,7.2,8.1,9,11.5c1,1.9,1.3,3.4,1,4.4c-0.3,1.1-0.9,1.8-3.2,3.7
		c-1,0.8-1.9,1.6-2,1.8c-0.4,0.5-0.7,1.5-0.7,2.3c0,1.7,1.1,4.7,2.5,7.1c1.1,1.8,3.1,4.2,5.1,5.9c2.3,2.1,4.3,3.6,6.6,4.7
		c3,1.5,4.8,1.8,6.1,1.2c0.3-0.2,0.7-0.4,0.8-0.4c0.1-0.1,0.9-1,1.7-2.1c1.6-2.1,2-2.4,3.1-2.8c1.4-0.5,2.9-0.4,4.3,0.4
		c1.1,0.6,3.5,2.1,5.1,3.2c2.1,1.4,6.5,5,7,5.7C62.6,50.6,62.8,52.3,62.1,54.1z"/>
	<path class="st1" d="M61.6,49.3c-0.6-0.7-5-4.3-7-5.7c-1.6-1.1-4-2.6-5.1-3.2c-1.5-0.7-2.9-0.9-4.3-0.4c-1.1,0.4-1.5,0.7-3.1,2.8
		c-0.8,1-1.6,2-1.7,2.1c-0.1,0.1-0.5,0.3-0.8,0.4c-1.3,0.6-3.1,0.2-6.1-1.2c-2.3-1.1-4.3-2.6-6.6-4.7c-2-1.8-4-4.1-5.1-5.9
		c-1.4-2.3-2.5-5.4-2.5-7.1c0-0.7,0.3-1.8,0.7-2.3c0.1-0.1,0.2-0.3,0.5-0.5C16.7,25.8,12.5,27,7.9,27c-0.1,0-0.2,0-0.4,0
		c1.7,3,3.6,6,5.8,8.9c9,11.9,20.3,20.6,34.4,26.5c1.8,0.7,2.4,0.9,3.8,0.8c1.7-0.1,3-0.6,4.8-2c2-1.5,4.9-5.1,5.7-7.1
		C62.8,52.3,62.6,50.6,61.6,49.3z"/>
	<path class="st0" d="M31.6,1.3c0.5-0.4,0.8-0.5,2.5-0.4c0.9,0,2.1,0.1,2.8,0.2c3.5,0.4,6.3,1.3,9.3,2.8c3,1.5,5,2.9,7.5,5.4
		c2.4,2.4,3.7,4.2,5.1,7.1c2,3.9,3.1,8.6,3.3,13.8c0.1,1.8,0,2.2-0.4,2.7c-0.8,1-2.4,0.8-3-0.3c-0.2-0.4-0.2-0.7-0.3-2.1
		c-0.1-2.2-0.3-3.6-0.6-5.2c-1.2-6.6-4.3-11.8-9.4-15.5c-4.2-3.1-8.5-4.7-14.2-5c-1.9-0.1-2.2-0.2-2.7-0.5C30.9,3.5,30.8,2,31.6,1.3
		z"/>
	<path class="st1" d="M43.6,14.2c-2-1.2-5-2.1-7.8-2.3c-1-0.1-1.5-0.3-1.9-0.7c-0.6-0.7-0.6-1.5-0.1-2.3c0.5-0.8,1.3-0.9,3.7-0.6
		c6.1,0.9,10.9,3.7,14,8.3c1.7,2.6,2.8,5.6,3.2,8.9c0.1,1.2,0.1,3.4,0,3.7c-0.1,0.3-0.6,0.8-0.9,1c-0.4,0.2-1.2,0.2-1.7-0.1
		c-0.8-0.4-1-1-1-2.7c0-2.6-0.7-5.4-1.8-7.5C47.9,17.7,46,15.6,43.6,14.2z"/>
	<path class="st2" d="M47,27.7c-0.6,0.5-1.7,0.6-2.4,0c-0.5-0.4-0.6-0.7-0.7-1.8c-0.1-1.4-0.4-2.3-0.8-3.2c-0.9-1.9-2.4-2.9-5.1-3.2
		c-1.2-0.1-1.6-0.3-2-0.8c-0.7-0.9-0.5-2.3,0.6-2.8c0.4-0.2,0.5-0.2,1.4-0.2c0.5,0,1.3,0.1,1.7,0.2c2,0.4,3.5,1.2,4.8,2.4
		c1.7,1.6,2.6,3.5,3,6.2C47.8,26.4,47.7,27.1,47,27.7z"/>
	<path class="st2" d="M61.6,49.3c-0.6-0.7-5-4.3-7-5.7c-1.6-1.1-4-2.6-5.1-3.2c-1.5-0.7-2.9-0.9-4.3-0.4c-1.1,0.4-1.5,0.7-3.1,2.8
		c-0.8,1-1.6,2-1.7,2.1c-0.1,0.1-0.4,0.3-0.8,0.4c-2.5,3-5.4,5.6-8.7,7.7c5.2,3.7,10.8,6.8,17,9.4c1.8,0.7,2.4,0.9,3.8,0.8
		c1.7-0.1,3-0.6,4.8-2c2-1.5,4.9-5.1,5.7-7.1C62.8,52.3,62.6,50.6,61.6,49.3z"/>
</g>
</svg>
